<svg width="12" height="12" viewBox="0 0 12 12"
  xmlns="http://www.w3.org/2000/svg">
  <path d="M3 12C2.60218 12 2.22064 11.8419 1.93934 11.5606C1.65803 11.2793 1.5 10.8978 1.5 10.5V3.75H0.75C0.551088 3.75 0.360322 3.67097 0.219669 3.53032C0.0790171 3.38967 0 3.19891 0 3C0 2.80109 0.0790171 2.61033 0.219669 2.46968C0.360322 2.32903 0.551088 2.25 0.75 2.25H3.75V1.5C3.75 1.10218 3.90803 0.720666 4.18934 0.439362C4.47064 0.158057 4.85218 0 5.25 0H6.75C7.14782 0 7.52936 0.158057 7.81066 0.439362C8.09197 0.720666 8.25 1.10218 8.25 1.5V2.25H11.25C11.4489 2.25 11.6397 2.32903 11.7803 2.46968C11.921 2.61033 12 2.80109 12 3C12 3.19891 11.921 3.38967 11.7803 3.53032C11.6397 3.67097 11.4489 3.75 11.25 3.75H10.5V10.5C10.5 10.8978 10.342 11.2793 10.0607 11.5606C9.77936 11.8419 9.39782 12 9 12H3ZM3 10.5H9V3.75H3V10.5ZM5.25 2.25H6.75V1.5H5.25V2.25ZM5.25 6.75C5.05109 6.75 4.86032 6.67097 4.71967 6.53032C4.57902 6.38967 4.5 6.19891 4.5 6C4.5 5.80109 4.57902 5.61033 4.71967 5.46968C4.86032 5.32903 5.05109 5.25 5.25 5.25H6.75C6.94891 5.25 7.13968 5.32903 7.28033 5.46968C7.42098 5.61033 7.5 5.80109 7.5 6C7.5 6.19891 7.42098 6.38967 7.28033 6.53032C7.13968 6.67097 6.94891 6.75 6.75 6.75H5.25Z" />
</svg>
